Coordinates
version=1
nRows=17
nColumns=36
inDegrees=yes

Units are S.I. units (second, meters, Newtons, ...)
If the header above contains a line with 'inDegrees', this indicates whether rotational values are in degrees (yes) or radians (no).

endheader
time	pelvis_tilt	pelvis_list	pelvis_rotation	pelvis_tx	pelvis_ty	pelvis_tz	hip_flexion_r	hip_adduction_r	hip_rotation_r	knee_angle_r	knee_angle_r_beta	ankle_angle_r	subtalar_angle_r	mtp_angle_r	hip_flexion_l	hip_adduction_l	hip_rotation_l	knee_angle_l	knee_angle_l_beta	ankle_angle_l	subtalar_angle_l	mtp_angle_l	lumbar_extension	lumbar_bending	lumbar_rotation	arm_flex_r	arm_add_r	arm_rot_r	elbow_flex_r	pro_sup_r	arm_flex_l	arm_add_l	arm_rot_l	elbow_flex_l	pro_sup_l
     29.95000000	      1.09986107	     -1.91577605	    179.73651382	      0.62948256	      1.06430465	      0.71972753	     19.24332066	     -3.06473390	      4.17967307	      7.46339177	      0.13026076	    -10.33759470	     -1.82397830	     -7.49999987	      0.16677299	      0.67770730	     -0.06164514	     33.50221125	      0.58472389	      9.06176243	     -2.71698801	     -7.49999987	    -12.40471059	     -2.44684697	      0.64935521	      5.87900256	    -14.15571523	      0.04112912	     21.58074947	     98.87594715	     20.77192947	    -14.87845698	      4.69602609	     33.50345825	     96.33809612
     29.96666670	      0.91993167	     -0.98253217	    179.50442452	      0.62663376	      1.06424501	      0.71565367	     19.13880340	     -1.59564663	      4.68341081	     10.36456071	      0.18089571	     -8.85123854	     -3.38813753	     -7.49999987	      1.88947881	     -0.88595097	     -0.54905455	     39.66093457	      0.69221389	      7.42286012	     -3.38469625	     -7.49999987	    -12.06194412	     -1.40151877	      1.00642562	      7.14942652	    -14.70098702	      2.30011348	     19.85431334	    102.69372097	     20.59236260	    -13.93280270	      2.26877718	     31.66800622	    102.03269951
     29.98333330	      0.52519635	      0.02185289	    179.51392119	      0.62578005	      1.06554116	      0.71187457	     18.41941505	     -0.11412230	      4.70677931	     12.89065523	      0.22498438	     -7.32240982	     -4.33311053	     -7.49999987	      3.65370958	     -2.51084487	     -0.66227857	     45.88723738	      0.80088338	      4.87597843	     -4.31404941	     -7.49999987	    -12.18331623	     -0.32685823	      1.76261968	      7.43294550	    -15.12669408	      2.81825355	     19.78574799	    102.02096050	     20.57818810	    -13.09273177	      2.41316728	     30.20165837	    101.44028907
     30.00000000	      0.03635768	      0.74777456	    179.54655742	      0.62671022	      1.06788449	      0.70676184	     17.25798278	      1.06708515	      4.54220812	     14.85145475	      0.25920678	     -6.29102015	     -4.51146334	     -7.49999987	      5.43846462	     -3.83807933	     -0.77410033	     51.70767507	      0.90246918	      1.91755282	     -5.05720926	     -7.49999987	    -12.51661211	      0.37511867	      2.66514941	      7.57254446	    -15.52777488	      3.68910544	     20.25513997	    101.75116594	     20.49605546	    -12.36212220	      2.99447964	     28.88190700	    101.73462162
     30.01666670	     -0.32151669	      1.20222311	    179.63674759	      0.62860663	      1.07038382	      0.69982321	     15.95742250	      1.96027136	      4.19973952	     16.21344119	      0.28297793	     -5.77759596	     -4.15569199	     -7.49999987	      7.54522902	     -4.90202641	     -0.86163927	     57.03148536	      0.99538720	     -1.10790166	     -5.71887250	     -7.49999987	    -12.81292449	      0.71627006	      3.37102662	      7.98917306	    -15.54551723	      4.09090751	     20.60942015	    101.10561060	     20.17711251	    -11.74251982	      2.99844552	     27.70136684	    101.26761818
     30.03333330	     -0.49712292	      1.51642177	    179.74520169	      0.63067379	      1.07248717	      0.69321450	     14.66712032	      2.69131796	      3.75527373	     17.09511626	      0.29836606	     -5.99902214	     -3.72605782	     -7.49999987	     10.07978607	     -5.84869436	     -0.94436314	     61.85349092	      1.07954707	     -3.46370645	     -6.30442261	     -7.49999987	    -13.07238989	      0.81757601	      4.36582433	      8.01504787	    -15.64661828	      4.43390956	     21.83837904	    101.56807774	     20.02693840	    -11.23869700	      3.20010335	     26.53129930	    103.16270944
     30.05000000	     -0.55364903	      1.76077806	    179.83972941	      0.63334257	      1.07448596	      0.68880762	     13.51585238	      3.29069488	      3.28201400	     17.68359289	      0.30863692	     -6.61148257	     -3.84966215	     -7.49999987	     12.92232517	     -6.68508126	     -0.88878580	     66.12637760	      1.15412301	     -5.05316881	     -6.97838978	     -7.49999987	    -13.33847284	      0.86258243	      5.10794743	      8.58909178	    -15.73463513	      5.92445880	     22.60769488	     99.72791515	     19.77977818	    -11.06379514	      4.03325916	     25.20194022	    101.24975690
     30.06666670	     -0.75067094	      2.04850938	    179.94282940	      0.63687257	      1.07784856	      0.68615843	     12.37808667	      3.82109034	      2.78541311	     18.14895072	      0.31675895	     -6.61724471	     -4.81498915	     -7.49999987	     15.57283862	     -7.44040721	     -0.54935934	     69.60598560	      1.21485363	     -5.88462002	     -7.72343408	     -7.49999987	    -14.02028274	      1.08437468	      5.46899801	      9.51610699	    -15.73216247	      6.06227526	     23.70094362	     99.82219757	     19.11460437	    -11.08486543	      3.84843827	     24.41938302	    101.35896167
     30.08333330	     -0.95423318	      2.29840582	    179.86622501	      0.64015982	      1.08306932	      0.68398706	     11.30212121	      4.20572894	      2.27472946	     18.65802662	      0.32564400	     -6.27144000	     -6.22466266	     -7.49999987	     17.99019196	     -8.04067328	     -0.28049589	     72.05242829	      1.25755211	     -6.13117593	     -8.50972154	     -7.49999987	    -14.73238662	      1.24577459	      5.93921854	     10.65112455	    -15.87814050	      6.90402187	     24.66798112	     99.36851264	     18.63583429	    -10.94663817	      3.47436948	     22.91147041	    100.74998058
     30.10000000	     -1.15105023	      2.41035741	    179.68624571	      0.64209664	      1.08986617	      0.68250009	     10.35081575	      4.37515999	      1.94160281	     19.30506923	      0.33693702	     -5.60871235	     -8.50051410	     -7.49999987	     20.07467628	     -8.36339596	     -0.23200886	     73.26177755	      1.27865923	     -5.95133410	     -9.02230164	     -7.49999987	    -15.38574456	      1.31408751	      6.18602026	     12.24001736	    -15.83933695	      7.49251629	     24.90330455	    100.06083834	     18.18484030	    -10.92148637	      3.24233020	     20.90374969	    101.46579602
     30.11666670	     -1.48598888	      2.45507198	    179.63447382	      0.64267626	      1.09685019	      0.68226632	      9.16419873	      4.29483713	      1.06229181	     19.68831251	      0.34362588	     -4.55981250	    -10.03239704	     -7.49999987	     21.64321816	     -8.32571878	     -0.23176720	     73.27144941	      1.27882804	     -6.03470944	     -9.94220386	     -7.49999987	    -16.28652362	      1.35862121	      6.48828896	     13.28147043	    -16.14008167	      8.23249756	     26.12849213	    100.44263446	     17.50011855	    -10.82844286	      3.12081862	     20.03811227	    101.90707707
     30.13333330	     -1.74857408	      2.27482316	    179.48822562	      0.64282910	      1.10206356	      0.68194031	      8.03427639	      4.03449453	      0.62811945	     19.79559386	      0.34549829	     -3.86822977	    -11.92279551	     -7.49999987	     22.81467892	     -8.00488312	     -0.57046079	     72.29585169	      1.26180065	     -5.76706291	    -10.10749887	     -7.49999987	    -16.91366420	      1.15880124	      6.51429468	     14.42276504	    -16.12988433	      8.58323277	     26.81136781	    100.52706599	     16.80812139	    -10.80857739	      2.95885148	     18.92284186	    102.20933423
     30.15000000	     -1.87508618	      2.04449062	    179.32718741	      0.64314485	      1.10507836	      0.68151599	      6.99369847	      3.75486954	      0.37917852	     19.50410393	      0.34041083	     -3.13396818	    -13.34092474	     -7.49999987	     23.73347657	     -7.53356280	     -0.93178954	     70.59471344	      1.23211018	     -5.35025034	     -9.96748154	     -7.49999987	    -17.25708548	      0.90919672	      6.49711811	     15.36049935	    -16.09676435	      8.95997681	     27.28082015	    100.30287058	     16.18163630	    -10.70771173	      3.00966265	     17.83948485	    102.17507194
     30.16666670	     -1.83374737	      1.79144870	    179.02350153	      0.64367980	      1.10729748	      0.68083619	      6.02903202	      3.56801440	      0.63540424	     18.71692406	      0.32667195	     -2.89774707	    -14.90307269	     -7.49999987	     24.48347374	     -7.07345131	     -1.43826835	     68.28107461	      1.19172957	     -4.52424372	     -9.16404412	     -7.49999987	    -17.26452835	      0.58551952	      6.46079824	     16.27779786	    -15.91997803	      9.03195070	     27.31970341	    100.25894948	     15.68678943	    -10.58862334	      3.16467350	     16.37298232	    102.31558505
     30.18333330	     -1.92240837	      1.76401186	    178.92538160	      0.64421457	      1.10974530	      0.68093144	      4.77171692	      3.56569904	      0.35456055	     17.47793861	      0.30504758	     -2.22249007	    -14.73601534	     -7.49999987	     24.93143333	     -6.67556476	     -1.55268176	     65.46261803	      1.14253822	     -4.26866229	     -9.16744292	     -7.49999987	    -17.43600273	      0.53533485	      6.70570539	     16.49909115	    -16.29949635	      9.31040077	     28.28503627	     99.98417271	     15.10153427	    -10.26829816	      3.68575262	     15.90396928	    102.51714643
     30.20000000	     -1.89138307	      1.74988412	    178.77009566	      0.64419511	      1.11011181	      0.68120075	      3.58852665	      3.69509236	      0.50890791	     16.05251043	      0.28016916	     -2.06378309	    -14.81790084	     -7.49999987	     25.29173677	     -6.46772261	     -1.73507660	     62.21392333	      1.08583780	     -4.08838322	     -8.99969447	     -7.49999987	    -17.37758319	      0.45133803	      6.95110822	     16.56302219	    -16.61518593	      9.42054398	     29.14085877	     99.12598623	     14.61520265	     -9.87275956	      4.43653065	     14.98300045	    102.42582821
     30.21666670	     -1.61140913	      1.83926438	    178.72416151	      0.64286610	      1.10829739	      0.68238927	      2.66269082	      3.95541559	      0.69590753	     14.70749339	      0.25669418	     -2.07059721	    -14.67669537	     -7.49999987	     25.77318941	     -6.48306144	     -1.84585524	     58.61858668	      1.02308734	     -4.14394692	     -9.02416963	     -7.49999987	    -16.91121853	      0.50787498	      6.96832960	     16.61399128	    -16.77077004	      9.34644879	     29.44167268	     99.23632614	     13.87517002	     -9.48048560	      4.52301240	     14.18486689	    102.78037638
